<svg width="321" height="67" viewBox="0 0 321 67" fill="none" xmlns="http://www.w3.org/2000/svg">
<foreignObject x="-9.98926" y="-13.6045" width="340" height="86.5566"><div xmlns="http://www.w3.org/1999/xhtml" style="backdrop-filter:blur(7.5px);clip-path:url(#bgblur_0_1_8550_clip_path);height:100%;width:100%"></div></foreignObject><g filter="url(#filter0_d_1_8550)" data-figma-bg-blur-radius="15">
<mask id="path-1-inside-1_1_8550" fill="white">
<path d="M29.0107 1.39551C15.7559 1.39551 5.01074 12.1407 5.01074 25.3955C5.01074 38.6503 15.7559 49.3955 29.0107 49.3955H96.248V57.9521L106.706 49.3955H291.011C304.266 49.3955 315.011 38.6503 315.011 25.3955C315.011 12.1407 304.266 1.39551 291.011 1.39551H29.0107Z"/>
</mask>
<path d="M29.0107 1.39551C15.7559 1.39551 5.01074 12.1407 5.01074 25.3955C5.01074 38.6503 15.7559 49.3955 29.0107 49.3955H96.248V57.9521L106.706 49.3955H291.011C304.266 49.3955 315.011 38.6503 315.011 25.3955C315.011 12.1407 304.266 1.39551 291.011 1.39551H29.0107Z" fill="#FFD70A"/>
<path d="M29.0107 49.3955V51.3955V49.3955ZM96.248 49.3955V47.3955H98.248V49.3955H96.248ZM96.248 57.9521L97.5145 59.5001L94.248 62.1727V57.9521H96.248ZM106.706 49.3955L105.44 47.8476L105.992 47.3955H106.706V49.3955ZM291.011 1.39551V-0.604492V1.39551ZM29.0107 1.39551V3.39551C16.8605 3.39551 7.01074 13.2452 7.01074 25.3955H5.01074H3.01074C3.01074 11.0361 14.6513 -0.604492 29.0107 -0.604492V1.39551ZM5.01074 25.3955H7.01074C7.01074 37.5458 16.8605 47.3955 29.0107 47.3955V49.3955V51.3955C14.6513 51.3955 3.01074 39.7549 3.01074 25.3955H5.01074ZM29.0107 49.3955V47.3955H96.248V49.3955V51.3955H29.0107V49.3955ZM96.248 49.3955H98.248V57.9521H96.248H94.248V49.3955H96.248ZM96.248 57.9521L94.9816 56.4042L105.44 47.8476L106.706 49.3955L107.973 50.9434L97.5145 59.5001L96.248 57.9521ZM106.706 49.3955V47.3955H291.011V49.3955V51.3955H106.706V49.3955ZM291.011 49.3955V47.3955C303.161 47.3955 313.011 37.5458 313.011 25.3955H315.011H317.011C317.011 39.7549 305.37 51.3955 291.011 51.3955V49.3955ZM315.011 25.3955H313.011C313.011 13.2452 303.161 3.39551 291.011 3.39551V1.39551V-0.604492C305.37 -0.604492 317.011 11.0361 317.011 25.3955H315.011ZM291.011 1.39551V3.39551H29.0107V1.39551V-0.604492H291.011V1.39551Z" fill="black" mask="url(#path-1-inside-1_1_8550)"/>
</g>
<defs>
<filter id="filter0_d_1_8550" x="-9.98926" y="-13.6045" width="340" height="86.5566" filterUnits="userSpaceOnUse" color-interpolation-filters="sRGB">
<feFlood flood-opacity="0" result="BackgroundImageFix"/>
<feColorMatrix in="SourceAlpha" type="matrix" values="0 0 0 0 0 0 0 0 0 0 0 0 0 0 0 0 0 0 127 0" result="hardAlpha"/>
<feOffset dy="4"/>
<feGaussianBlur stdDeviation="2.5"/>
<feComposite in2="hardAlpha" operator="out"/>
<feColorMatrix type="matrix" values="0 0 0 0 0 0 0 0 0 0 0 0 0 0 0 0 0 0 0.3 0"/>
<feBlend mode="normal" in2="BackgroundImageFix" result="effect1_dropShadow_1_8550"/>
<feBlend mode="normal" in="SourceGraphic" in2="effect1_dropShadow_1_8550" result="shape"/>
</filter>
<clipPath id="bgblur_0_1_8550_clip_path" transform="translate(9.98926 13.6045)"><path d="M29.0107 1.39551C15.7559 1.39551 5.01074 12.1407 5.01074 25.3955C5.01074 38.6503 15.7559 49.3955 29.0107 49.3955H96.248V57.9521L106.706 49.3955H291.011C304.266 49.3955 315.011 38.6503 315.011 25.3955C315.011 12.1407 304.266 1.39551 291.011 1.39551H29.0107Z"/>
</clipPath></defs>
</svg>
